<?xml version="1.0" standalone="no"?>
<!DOCTYPE svg PUBLIC "-//W3C//DTD SVG 20010904//EN"
 "http://www.w3.org/TR/2001/REC-SVG-20010904/DTD/svg10.dtd">
<svg version="1.0" xmlns="http://www.w3.org/2000/svg"
 width="700.000000pt" height="700.000000pt" viewBox="0 0 700.000000 700.000000"
 preserveAspectRatio="xMidYMid meet">
<metadata>
Created by potrace 1.14, written by Peter Selinger 2001-2017
</metadata>
<g transform="translate(0.000000,700.000000) scale(0.100000,-0.100000)"
fill="#000000" stroke="none">
<path d="M3187 6414 c-1 -1 -81 -4 -177 -8 -96 -4 -191 -9 -210 -11 -19 -2
-71 -6 -115 -9 -44 -4 -96 -9 -115 -11 -19 -2 -57 -7 -85 -10 -44 -5 -182 -26
-270 -41 -16 -3 -86 -18 -155 -35 -436 -103 -773 -300 -1001 -584 -152 -190
-301 -521 -354 -785 -2 -8 -8 -33 -13 -55 -13 -47 -48 -265 -58 -350 -3 -33
-8 -68 -9 -77 -2 -9 -7 -60 -10 -114 -4 -53 -9 -109 -10 -123 -24 -179 -24
-1104 -1 -1396 3 -33 8 -91 11 -130 9 -120 16 -178 25 -235 5 -30 12 -75 15
-100 3 -25 8 -52 10 -60 2 -8 6 -32 9 -52 5 -33 23 -112 56 -248 21 -89 114
-346 130 -360 3 -3 23 -41 45 -84 78 -153 192 -301 323 -416 41 -36 79 -70 85
-76 40 -36 182 -121 288 -173 106 -51 315 -129 391 -145 13 -3 61 -14 108 -25
47 -11 101 -23 120 -26 19 -3 42 -8 50 -10 8 -2 42 -7 75 -11 33 -3 62 -8 65
-9 3 -2 34 -6 70 -9 36 -4 76 -9 90 -11 14 -2 66 -7 115 -11 50 -3 106 -8 125
-10 269 -24 1059 -24 1400 1 100 7 207 16 240 21 77 11 97 13 145 19 68 9 178
28 280 49 103 21 312 84 400 119 93 38 252 122 330 175 349 238 565 577 684
1072 17 69 33 139 36 155 16 95 35 218 40 270 3 33 8 71 10 85 52 349 52 1392
-1 1870 -3 25 -7 65 -10 90 -2 25 -6 52 -8 60 -3 8 -7 35 -10 60 -10 76 -26
161 -57 295 -5 22 -11 45 -13 50 -1 6 -6 24 -10 40 -4 17 -23 77 -43 135 -188
557 -557 908 -1136 1080 -101 31 -243 65 -315 76 -20 3 -39 7 -42 9 -3 2 -33
6 -65 10 -33 3 -67 8 -75 10 -8 2 -42 7 -75 10 -33 3 -71 8 -84 10 -13 2 -61
7 -105 10 -45 4 -101 8 -126 11 -133 12 -1001 28 -1013 18z m-601 -1499 c110
-37 243 -102 344 -169 61 -40 58 -40 120 -25 65 15 71 17 130 24 29 4 62 9 74
12 12 2 102 6 201 8 186 3 293 -4 430 -31 44 -8 91 -17 105 -20 17 -3 42 7 80
31 203 132 384 201 546 210 162 8 283 -47 339 -155 25 -48 59 -159 81 -261 19
-90 26 -378 11 -470 -7 -44 -3 -54 47 -155 61 -123 107 -257 133 -389 25 -129
24 -515 -1 -652 -2 -10 -7 -38 -11 -63 -11 -66 -12 -71 -25 -120 -7 -25 -13
-52 -15 -60 -15 -78 -135 -356 -174 -402 -6 -7 -32 -40 -56 -73 -213 -281
-515 -437 -965 -500 -19 -3 -66 -10 -105 -15 -174 -26 -486 -34 -665 -17 -74
7 -286 38 -345 51 -308 67 -543 190 -724 379 -158 166 -284 412 -337 662 -38
175 -48 284 -49 505 0 166 4 230 20 310 2 14 7 39 10 55 15 77 72 230 121 328
51 103 54 111 46 160 -4 29 -7 131 -6 227 1 141 5 193 22 265 49 209 92 291
180 342 67 39 125 51 233 47 77 -2 116 -10 205 -39z"/>
</g>
</svg>
