<svg version="1.0" xmlns="http://www.w3.org/2000/svg" width="933.333" height="933.333" viewBox="0 0 700 700"><path d="M318.7 58.6c-.1.1-8.1.4-17.7.8s-19.1.9-21 1.1c-1.9.2-7.1.6-11.5.9-4.4.4-9.6.9-11.5 1.1-1.9.2-5.7.7-8.5 1-4.4.5-18.2 2.6-27 4.1-1.6.3-8.6 1.8-15.5 3.5-43.6 10.3-77.3 30-100.1 58.4-15.2 19-30.1 52.1-35.4 78.5-.2.8-.8 3.3-1.3 5.5-1.3 4.7-4.8 26.5-5.8 35-.3 3.3-.8 6.8-.9 7.7-.2.9-.7 6-1 11.4-.4 5.3-.9 10.9-1 12.3-2.4 17.9-2.4 110.4-.1 139.6.3 3.3.8 9.1 1.1 13 .9 12 1.6 17.8 2.5 23.5.5 3 1.2 7.5 1.5 10 .3 2.5.8 5.2 1 6 .2.8.6 3.2.9 5.2.5 3.3 2.3 11.2 5.6 24.8 2.1 8.9 11.4 34.6 13 36 .3.3 2.3 4.1 4.5 8.4 7.8 15.3 19.2 30.1 32.3 41.6 4.1 3.6 7.9 7 8.5 7.6 4 3.6 18.2 12.1 28.8 17.3 10.6 5.1 31.5 12.9 39.1 14.5 1.3.3 6.1 1.4 10.8 2.5 4.7 1.1 10.1 2.3 12 2.6 1.9.3 4.2.8 5 1 .8.2 4.2.7 7.5 1.1 3.3.3 6.2.8 6.5.9.3.2 3.4.6 7 .9 3.6.4 7.6.9 9 1.1 1.4.2 6.6.7 11.5 1.1 5 .3 10.6.8 12.5 1 26.9 2.4 105.9 2.4 140-.1 10-.7 20.7-1.6 24-2.1 7.7-1.1 9.7-1.3 14.5-1.9 6.8-.9 17.8-2.8 28-4.9 10.3-2.1 31.2-8.4 40-11.9 9.3-3.8 25.2-12.2 33-17.5 34.9-23.8 56.5-57.7 68.4-107.2 1.7-6.9 3.3-13.9 3.6-15.5 1.6-9.5 3.5-21.8 4-27 .3-3.3.8-7.1 1-8.5 5.2-34.9 5.2-139.2-.1-187-.3-2.5-.7-6.5-1-9-.2-2.5-.6-5.2-.8-6-.3-.8-.7-3.5-1-6-1-7.6-2.6-16.1-5.7-29.5-.5-2.2-1.1-4.5-1.3-5-.1-.6-.6-2.4-1-4-.4-1.7-2.3-7.7-4.3-13.5-18.8-55.7-55.7-90.8-113.6-108-10.1-3.1-24.3-6.5-31.5-7.6-2-.3-3.9-.7-4.2-.9-.3-.2-3.3-.6-6.5-1-3.3-.3-6.7-.8-7.5-1-.8-.2-4.2-.7-7.5-1-3.3-.3-7.1-.8-8.4-1-1.3-.2-6.1-.7-10.5-1-4.5-.4-10.1-.8-12.6-1.1-13.3-1.2-100.1-2.8-101.3-1.8zm-60.1 149.9c11 3.7 24.3 10.2 34.4 16.9 6.1 4 5.8 4 12 2.5 6.5-1.5 7.1-1.7 13-2.4 2.9-.4 6.2-.9 7.4-1.2 1.2-.2 10.2-.6 20.1-.8 18.6-.3 29.3.4 43 3.1 4.4.8 9.1 1.7 10.5 2 1.7.3 4.2-.7 8-3.1 20.3-13.2 38.4-20.1 54.6-21 16.2-.8 28.3 4.7 33.9 15.5 2.5 4.8 5.9 15.9 8.1 26.1 1.9 9 2.6 37.8 1.1 47-.7 4.4-.3 5.4 4.7 15.5 6.1 12.3 10.7 25.7 13.3 38.9 2.5 12.9 2.4 51.5-.1 65.2-.2 1-.7 3.8-1.1 6.3-1.1 6.6-1.2 7.1-2.5 12-.7 2.5-1.3 5.2-1.5 6-1.5 7.8-13.5 35.6-17.4 40.2-.6.7-3.2 4-5.6 7.3-21.3 28.1-51.5 43.7-96.5 50-1.9.3-6.6 1-10.5 1.5-17.4 2.6-48.6 3.4-66.5 1.7-7.4-.7-28.6-3.8-34.5-5.1-30.8-6.7-54.3-19-72.4-37.9-15.8-16.6-28.4-41.2-33.7-66.2-3.8-17.5-4.8-28.4-4.9-50.5 0-16.6.4-23 2-31 .2-1.4.7-3.9 1-5.5 1.5-7.7 7.2-23 12.1-32.8 5.1-10.3 5.4-11.1 4.6-16-.4-2.9-.7-13.1-.6-22.7.1-14.1.5-19.3 2.2-26.5 4.9-20.9 9.2-29.1 18-34.2 6.7-3.9 12.5-5.1 23.3-4.7 7.7.2 11.6 1 20.5 3.9z"/></svg>